<svg width="269" height="92" viewBox="0 0 269 92" fill="none" xmlns="http://www.w3.org/2000/svg">
<path fill-rule="evenodd" clip-rule="evenodd" d="M42.6411 66.2279L40.3891 76.6959L0.110471 69.5937C3.26138 66.6968 6.4118 60.3474 8.2351 50.0069L13.2014 21.8414C15.0247 11.5009 14.2359 4.45694 12.2658 0.657104L49.4916 7.22101L48.0448 17.7294L47.8479 17.6947C44.7305 11.7633 37.3033 6.08731 31.099 4.99332C26.1749 4.12508 21.9638 6.1242 20.8698 12.3285C19.5848 19.6161 23.7798 26.3468 35.499 28.4132L41.3094 29.4377L39.7118 38.4979L39.6133 38.4806C34.764 33.1576 29.6946 28.5067 25.7899 25.8889C23.4204 24.3541 21.7345 23.5491 19.4231 22.8369L11.0359 70.4031C21.8802 71.0968 36.345 71.4134 42.6411 66.2279ZM75.6051 83.139C65.0368 81.4652 55.1743 71.4996 57.9432 54.0176C60.4305 38.3133 72.3187 30.3753 83.1833 32.0961C90.7885 33.3006 95.064 39.5464 96.7726 43.4618L98.0602 35.9711C99.3323 28.579 98.4354 23.3747 95.7646 20.4205L95.8272 20.0254L107.126 16.4489L98.913 68.3025C97.4738 77.3892 98.5106 83.6282 100.818 86.3223L89.7554 84.5702L90.6676 79.4499C87.3966 81.5642 82.6177 84.2497 75.6051 83.139ZM84.882 34.795C77.5731 33.6374 67.3444 39.4084 64.857 55.1126C62.2915 71.3107 70.7047 78.9205 79.4951 80.3128C84.0385 81.0323 88.219 79.5683 90.8866 78.0671L96.4753 45.3385C94.892 40.6328 90.2155 35.6398 84.882 34.795ZM215.287 56.2501C214.451 67.1795 206.083 76.3438 192.589 77.5243C180.874 78.5492 170.15 70.423 169.006 57.3479C168.841 55.4651 168.8 53.7823 168.967 52.0813L209.343 48.5489C208.309 36.729 199.227 29.3023 187.198 30.3547C172.345 31.6542 161.113 44.2309 162.495 60.0256C163.831 75.2973 176.648 85.6646 191.188 84.3926C205.623 83.1297 216.408 70.2757 215.391 56.241L215.287 56.2501ZM186.462 31.5785C193.47 30.9654 199.525 33.9138 200.01 39.4577C200.394 43.8509 197.745 48.5095 186.239 49.5161L169.085 51.017C170.207 39.7463 177.571 32.3564 186.462 31.5785ZM216.088 28.7267C215.014 21.3034 212.552 16.6308 209.099 14.6466L209.037 14.2515L218.677 7.35854L226.89 59.2122C228.329 68.2989 231.243 73.9122 234.27 75.7615L223.208 77.5136L216.088 28.7267ZM247.468 15.3156L244.248 2.40098L243.821 2.50743C243.871 7.70985 239.944 15.6043 234.5 19.2292L234.606 19.6561L241.01 18.0595L248.541 48.2648C251.868 61.6063 257.545 70.2806 268.752 67.4864L268.645 67.0594C263.309 67.9365 258.858 60.9971 254.973 45.4142L247.734 16.3829L255.526 14.4403L255.26 13.373L247.468 15.3156ZM129.902 55.4234C130.895 46.3755 125.49 43.895 119.115 43.3372L119.176 42.6399L140.992 44.5486C129.745 41.1554 120.082 32.2795 120.718 25.0073C121.032 21.421 124.23 19.2916 128.115 19.6315C132 19.9714 136.2 22.4469 140.201 24.9049C142.869 26.5436 146.06 27.9271 149.858 29.2632L149.048 38.5278C143.448 33.7686 140.176 29.7522 137.794 26.829C135.247 23.7039 133.718 21.8282 131.454 21.63C129.86 21.4906 128.46 22.5727 128.172 25.8602C127.414 34.5271 137.506 44.2436 148.464 45.2023L148.403 45.8996L136.747 44.8799L134.229 73.6699C133.427 82.8349 134.896 88.9864 137.385 91.513L126.228 90.5368L129.902 55.4234Z" fill="#B293F4"/>
</svg>
