<svg width="939" height="417" viewBox="0 0 939 417" fill="none" xmlns="http://www.w3.org/2000/svg">
<g style="mix-blend-mode:darken">
<path fill-rule="evenodd" clip-rule="evenodd" d="M190.641 6.17993L66.1423 326.4C65.5924 327.811 65.0433 329.198 64.4949 330.563L0 410H155.885L85.2913 323.052C88.5678 309.32 93.7848 293.236 100.942 274.8L111.142 247.8H232.342L267.742 346.2C269.208 349.864 270.45 353.305 271.468 356.522L219.019 408H232.942V408.6C236.906 408.38 241.274 408.18 246.046 408H426.319C432.116 408.18 437.657 408.38 442.942 408.6V396.6C436.942 396.2 430.742 393 424.342 387C418.342 380.6 412.742 371 407.542 358.2L282.564 35.9432C246.317 27.6611 215.149 17.5868 190.641 6.17993ZM771.039 36.5195V37.2022L725.966 97.2H725.439V97.9009L725.177 98.25H725.439V109.2H771.039V313.2C771.039 335.6 772.239 353 774.639 365.4C777.439 377.8 783.039 388.2 791.439 396.6C805.039 410.2 825.639 417 853.239 417C891.639 417 920.039 401.2 938.439 369.6L929.439 362.4C924.639 368.4 919.239 372.8 913.239 375.6C907.239 378.4 901.839 379.8 897.039 379.8C890.639 379.8 886.039 378.2 883.239 375C880.439 371.8 879.039 366.2 879.039 358.2V109.2H937.839V97.2H879.039V0C863.735 9.0256 847.468 15.7413 830.239 20.1472C812.797 26.0707 793.329 31.4752 772.145 36.2701L771.942 36L771.656 36.3805L771.039 36.5195ZM173.542 85.8L228.142 235.8H115.942L173.542 85.8ZM712.572 106.8C704.172 94.8 690.172 88.8 670.572 88.8C634.172 88.8 608.372 103.8 593.172 133.8V90.6C565.172 96.2 530.372 99 488.772 99C476.772 99 464.372 98.4 451.572 97.2V109.8C463.972 109.8 472.572 114 477.372 122.4C482.572 130.8 485.172 144.2 485.172 162.6V352.8C485.172 369.2 482.572 380.6 477.372 387C472.572 393 463.972 396 451.572 396V408.6C452.821 408.6 454.012 408.589 455.145 408.565L454.684 409H658.2L644.772 396.332V396L644.668 396L644.42 396L593.175 347.654C593.174 347.52 593.173 347.386 593.173 347.251C593.172 347.101 593.172 346.951 593.172 346.8V166.8C593.172 155.2 596.572 144.6 603.372 135C610.172 125 618.572 117.8 628.572 113.4C634.172 110.6 640.572 109.2 647.772 109.2C627.372 122.8 617.172 141.4 617.172 165C617.172 178.2 621.772 188.8 630.972 196.8C640.172 204.4 653.372 208.2 670.572 208.2C686.972 208.2 700.172 203 710.172 192.6C720.572 181.8 725.772 167.4 725.772 149.4C725.772 133 721.372 118.8 712.572 106.8Z" fill="#EDD8D8"/>
</g>
</svg>
