<svg width="670" height="330" viewBox="0 0 670 330" fill="none" xmlns="http://www.w3.org/2000/svg">
<mask id="path-1-inside-1" fill="white">
<path fill-rule="evenodd" clip-rule="evenodd" d="M90 79.1156C98.3039 77.0841 103 68.5654 103 62C103 44.3269 88.4493 30 70.5 30C52.5507 30 38 44.3269 38 62C38 79.6731 52.5507 94 70.5 94C73.5495 94 73.8956 89.1422 72.8803 85.9773C71.6573 82.1649 72.8862 79.3878 75.7183 77.5067C77.497 76.3253 79.6792 77.1074 82.1368 77.9883C84.5353 78.8479 87.1961 79.8016 90 79.1156ZM69.1264 45.8642C71.4522 45.8642 73.3377 44.0234 73.3377 41.7525C73.3377 39.4817 71.4522 37.6408 69.1264 37.6408C66.8006 37.6408 64.9152 39.4817 64.9152 41.7525C64.9152 44.0234 66.8006 45.8642 69.1264 45.8642ZM88.3518 45.8642C88.3518 48.1351 86.4663 49.976 84.1405 49.976C81.8147 49.976 79.9292 48.1351 79.9292 45.8642C79.9292 43.5934 81.8147 41.7525 84.1405 41.7525C86.4663 41.7525 88.3518 43.5934 88.3518 45.8642ZM96.7743 58.9145C96.7743 61.1854 94.8889 63.0262 92.5631 63.0262C90.2372 63.0262 88.3518 61.1854 88.3518 58.9145C88.3518 56.6437 90.2372 54.8028 92.5631 54.8028C94.8889 54.8028 96.7743 56.6437 96.7743 58.9145ZM59.056 46.9369C59.056 49.2077 57.1706 51.0486 54.8447 51.0486C52.5189 51.0486 50.6335 49.2077 50.6335 46.9369C50.6335 44.666 52.5189 42.8251 54.8447 42.8251C57.1706 42.8251 59.056 44.666 59.056 46.9369ZM48.4363 64.814C50.7621 64.814 52.6476 62.9731 52.6476 60.7022C52.6476 58.4314 50.7621 56.5905 48.4363 56.5905C46.1105 56.5905 44.225 58.4314 44.225 60.7022C44.225 62.9731 46.1105 64.814 48.4363 64.814Z"/>
</mask>
<path d="M90 79.1156L89.5247 77.1729L89.5247 77.1729L90 79.1156ZM72.8803 85.9773L70.9759 86.5882L70.9759 86.5882L72.8803 85.9773ZM75.7183 77.5067L76.8248 79.1727L76.8248 79.1727L75.7183 77.5067ZM82.1368 77.9883L82.8116 76.1055L82.8116 76.1055L82.1368 77.9883ZM101 62C101 67.8594 96.7399 75.4078 89.5247 77.1729L90.4753 81.0583C99.8679 78.7605 105 69.2714 105 62H101ZM70.5 32C87.374 32 101 45.4606 101 62H105C105 43.1932 89.5245 28 70.5 28V32ZM40 62C40 45.4606 53.626 32 70.5 32V28C51.4755 28 36 43.1932 36 62H40ZM70.5 92C53.626 92 40 78.5394 40 62H36C36 80.8068 51.4755 96 70.5 96V92ZM70.9759 86.5882C71.3934 87.8898 71.5163 89.5401 71.2578 90.7613C71.1294 91.368 70.9403 91.711 70.8014 91.8684C70.7144 91.967 70.6572 92 70.5 92V96C71.8676 96 72.9971 95.4258 73.801 94.5147C74.5529 93.6623 74.9587 92.593 75.1711 91.5896C75.5942 89.5907 75.3824 87.2296 74.7847 85.3663L70.9759 86.5882ZM74.6118 75.8407C72.9283 76.9588 71.5847 78.4379 70.8978 80.3377C70.2086 82.2437 70.2595 84.355 70.9759 86.5882L74.7847 85.3663C74.2781 83.7872 74.3319 82.6037 74.6595 81.6978C74.9893 80.7857 75.6762 79.9356 76.8248 79.1727L74.6118 75.8407ZM82.8116 76.1055C81.6349 75.6838 80.275 75.1881 78.9637 74.9954C77.587 74.7931 76.0463 74.8879 74.6118 75.8407L76.8248 79.1727C77.169 78.9441 77.6087 78.8393 78.3822 78.9529C79.2211 79.0762 80.1811 79.4119 81.462 79.871L82.8116 76.1055ZM89.5247 77.1729C87.3956 77.6938 85.3039 76.9988 82.8116 76.1055L81.462 79.871C83.7667 80.697 86.9966 81.9094 90.4753 81.0583L89.5247 77.1729ZM71.3377 41.7525C71.3377 42.874 70.393 43.8642 69.1264 43.8642V47.8642C72.5114 47.8642 75.3377 45.1728 75.3377 41.7525H71.3377ZM69.1264 39.6408C70.393 39.6408 71.3377 40.6311 71.3377 41.7525H75.3377C75.3377 38.3323 72.5114 35.6408 69.1264 35.6408V39.6408ZM66.9152 41.7525C66.9152 40.6311 67.8598 39.6408 69.1264 39.6408V35.6408C65.7414 35.6408 62.9152 38.3323 62.9152 41.7525H66.9152ZM69.1264 43.8642C67.8598 43.8642 66.9152 42.874 66.9152 41.7525H62.9152C62.9152 45.1727 65.7414 47.8642 69.1264 47.8642V43.8642ZM84.1405 51.976C87.5255 51.976 90.3518 49.2845 90.3518 45.8642H86.3518C86.3518 46.9857 85.4071 47.976 84.1405 47.976V51.976ZM77.9292 45.8642C77.9292 49.2845 80.7555 51.976 84.1405 51.976V47.976C82.8739 47.976 81.9292 46.9857 81.9292 45.8642H77.9292ZM84.1405 39.7525C80.7555 39.7525 77.9292 42.444 77.9292 45.8642H81.9292C81.9292 44.7428 82.8739 43.7525 84.1405 43.7525V39.7525ZM90.3518 45.8642C90.3518 42.444 87.5255 39.7525 84.1405 39.7525V43.7525C85.4071 43.7525 86.3518 44.7428 86.3518 45.8642H90.3518ZM92.5631 65.0262C95.9481 65.0262 98.7743 62.3348 98.7743 58.9145H94.7743C94.7743 60.036 93.8297 61.0262 92.5631 61.0262V65.0262ZM86.3518 58.9145C86.3518 62.3348 89.178 65.0262 92.5631 65.0262V61.0262C91.2964 61.0262 90.3518 60.036 90.3518 58.9145H86.3518ZM92.5631 52.8028C89.178 52.8028 86.3518 55.4943 86.3518 58.9145H90.3518C90.3518 57.7931 91.2964 56.8028 92.5631 56.8028V52.8028ZM98.7743 58.9145C98.7743 55.4943 95.9481 52.8028 92.5631 52.8028V56.8028C93.8297 56.8028 94.7743 57.7931 94.7743 58.9145H98.7743ZM54.8447 53.0486C58.2298 53.0486 61.056 50.3571 61.056 46.9369H57.056C57.056 48.0583 56.1114 49.0486 54.8447 49.0486V53.0486ZM48.6335 46.9369C48.6335 50.3571 51.4597 53.0486 54.8447 53.0486V49.0486C53.5781 49.0486 52.6335 48.0583 52.6335 46.9369H48.6335ZM54.8447 40.8251C51.4597 40.8251 48.6335 43.5166 48.6335 46.9369H52.6335C52.6335 45.8154 53.5781 44.8251 54.8447 44.8251V40.8251ZM61.056 46.9369C61.056 43.5166 58.2298 40.8251 54.8447 40.8251V44.8251C56.1114 44.8251 57.056 45.8154 57.056 46.9369H61.056ZM50.6476 60.7022C50.6476 61.8237 49.7029 62.814 48.4363 62.814V66.814C51.8213 66.814 54.6476 64.1225 54.6476 60.7022H50.6476ZM48.4363 58.5905C49.7029 58.5905 50.6476 59.5808 50.6476 60.7022H54.6476C54.6476 57.282 51.8213 54.5905 48.4363 54.5905V58.5905ZM46.225 60.7022C46.225 59.5808 47.1697 58.5905 48.4363 58.5905V54.5905C45.0513 54.5905 42.225 57.282 42.225 60.7022H46.225ZM48.4363 62.814C47.1697 62.814 46.225 61.8237 46.225 60.7022H42.225C42.225 64.1225 45.0513 66.814 48.4363 66.814V62.814Z" fill="black" mask="url(#path-1-inside-1)"/>
<mask id="path-3-inside-2" fill="white">
<path fill-rule="evenodd" clip-rule="evenodd" d="M90 79.1156C98.3039 77.0841 103 68.5654 103 62C103 44.3269 88.4493 30 70.5 30C52.5507 30 38 44.3269 38 62C38 79.6731 52.5507 94 70.5 94C73.5495 94 73.8956 89.1422 72.8803 85.9773C71.6573 82.1649 72.8862 79.3878 75.7183 77.5067C77.497 76.3253 79.6792 77.1074 82.1368 77.9883C84.5353 78.8479 87.1961 79.8016 90 79.1156ZM69.1264 45.8642C71.4522 45.8642 73.3377 44.0234 73.3377 41.7525C73.3377 39.4817 71.4522 37.6408 69.1264 37.6408C66.8006 37.6408 64.9152 39.4817 64.9152 41.7525C64.9152 44.0234 66.8006 45.8642 69.1264 45.8642ZM88.3518 45.8642C88.3518 48.1351 86.4663 49.976 84.1405 49.976C81.8147 49.976 79.9292 48.1351 79.9292 45.8642C79.9292 43.5934 81.8147 41.7525 84.1405 41.7525C86.4663 41.7525 88.3518 43.5934 88.3518 45.8642ZM96.7743 58.9145C96.7743 61.1854 94.8889 63.0262 92.5631 63.0262C90.2372 63.0262 88.3518 61.1854 88.3518 58.9145C88.3518 56.6437 90.2372 54.8028 92.5631 54.8028C94.8889 54.8028 96.7743 56.6437 96.7743 58.9145ZM59.056 46.9369C59.056 49.2077 57.1706 51.0486 54.8447 51.0486C52.5189 51.0486 50.6335 49.2077 50.6335 46.9369C50.6335 44.666 52.5189 42.8251 54.8447 42.8251C57.1706 42.8251 59.056 44.666 59.056 46.9369ZM48.4363 64.814C50.7621 64.814 52.6476 62.9731 52.6476 60.7022C52.6476 58.4314 50.7621 56.5905 48.4363 56.5905C46.1105 56.5905 44.225 58.4314 44.225 60.7022C44.225 62.9731 46.1105 64.814 48.4363 64.814Z"/>
</mask>
<path d="M90 79.1156L89.5247 77.1729L89.5247 77.1729L90 79.1156ZM72.8803 85.9773L70.9759 86.5882L70.9759 86.5882L72.8803 85.9773ZM75.7183 77.5067L76.8248 79.1727L76.8248 79.1727L75.7183 77.5067ZM82.1368 77.9883L82.8116 76.1055L82.8116 76.1055L82.1368 77.9883ZM101 62C101 67.8594 96.7399 75.4078 89.5247 77.1729L90.4753 81.0583C99.8679 78.7605 105 69.2714 105 62H101ZM70.5 32C87.374 32 101 45.4606 101 62H105C105 43.1932 89.5245 28 70.5 28V32ZM40 62C40 45.4606 53.626 32 70.5 32V28C51.4755 28 36 43.1932 36 62H40ZM70.5 92C53.626 92 40 78.5394 40 62H36C36 80.8068 51.4755 96 70.5 96V92ZM70.9759 86.5882C71.3934 87.8898 71.5163 89.5401 71.2578 90.7613C71.1294 91.368 70.9403 91.711 70.8014 91.8684C70.7144 91.967 70.6572 92 70.5 92V96C71.8676 96 72.9971 95.4258 73.801 94.5147C74.5529 93.6623 74.9587 92.593 75.1711 91.5896C75.5942 89.5907 75.3824 87.2296 74.7847 85.3663L70.9759 86.5882ZM74.6118 75.8407C72.9283 76.9588 71.5847 78.4379 70.8978 80.3377C70.2086 82.2437 70.2595 84.355 70.9759 86.5882L74.7847 85.3663C74.2781 83.7872 74.3319 82.6037 74.6595 81.6978C74.9893 80.7857 75.6762 79.9356 76.8248 79.1727L74.6118 75.8407ZM82.8116 76.1055C81.6349 75.6838 80.275 75.1881 78.9637 74.9954C77.587 74.7931 76.0463 74.8879 74.6118 75.8407L76.8248 79.1727C77.169 78.9441 77.6087 78.8393 78.3822 78.9529C79.2211 79.0762 80.1811 79.4119 81.462 79.871L82.8116 76.1055ZM89.5247 77.1729C87.3956 77.6938 85.3039 76.9988 82.8116 76.1055L81.462 79.871C83.7667 80.697 86.9966 81.9094 90.4753 81.0583L89.5247 77.1729ZM71.3377 41.7525C71.3377 42.874 70.393 43.8642 69.1264 43.8642V47.8642C72.5114 47.8642 75.3377 45.1728 75.3377 41.7525H71.3377ZM69.1264 39.6408C70.393 39.6408 71.3377 40.6311 71.3377 41.7525H75.3377C75.3377 38.3323 72.5114 35.6408 69.1264 35.6408V39.6408ZM66.9152 41.7525C66.9152 40.6311 67.8598 39.6408 69.1264 39.6408V35.6408C65.7414 35.6408 62.9152 38.3323 62.9152 41.7525H66.9152ZM69.1264 43.8642C67.8598 43.8642 66.9152 42.874 66.9152 41.7525H62.9152C62.9152 45.1727 65.7414 47.8642 69.1264 47.8642V43.8642ZM84.1405 51.976C87.5255 51.976 90.3518 49.2845 90.3518 45.8642H86.3518C86.3518 46.9857 85.4071 47.976 84.1405 47.976V51.976ZM77.9292 45.8642C77.9292 49.2845 80.7555 51.976 84.1405 51.976V47.976C82.8739 47.976 81.9292 46.9857 81.9292 45.8642H77.9292ZM84.1405 39.7525C80.7555 39.7525 77.9292 42.444 77.9292 45.8642H81.9292C81.9292 44.7428 82.8739 43.7525 84.1405 43.7525V39.7525ZM90.3518 45.8642C90.3518 42.444 87.5255 39.7525 84.1405 39.7525V43.7525C85.4071 43.7525 86.3518 44.7428 86.3518 45.8642H90.3518ZM92.5631 65.0262C95.9481 65.0262 98.7743 62.3348 98.7743 58.9145H94.7743C94.7743 60.036 93.8297 61.0262 92.5631 61.0262V65.0262ZM86.3518 58.9145C86.3518 62.3348 89.178 65.0262 92.5631 65.0262V61.0262C91.2964 61.0262 90.3518 60.036 90.3518 58.9145H86.3518ZM92.5631 52.8028C89.178 52.8028 86.3518 55.4943 86.3518 58.9145H90.3518C90.3518 57.7931 91.2964 56.8028 92.5631 56.8028V52.8028ZM98.7743 58.9145C98.7743 55.4943 95.9481 52.8028 92.5631 52.8028V56.8028C93.8297 56.8028 94.7743 57.7931 94.7743 58.9145H98.7743ZM54.8447 53.0486C58.2298 53.0486 61.056 50.3571 61.056 46.9369H57.056C57.056 48.0583 56.1114 49.0486 54.8447 49.0486V53.0486ZM48.6335 46.9369C48.6335 50.3571 51.4597 53.0486 54.8447 53.0486V49.0486C53.5781 49.0486 52.6335 48.0583 52.6335 46.9369H48.6335ZM54.8447 40.8251C51.4597 40.8251 48.6335 43.5166 48.6335 46.9369H52.6335C52.6335 45.8154 53.5781 44.8251 54.8447 44.8251V40.8251ZM61.056 46.9369C61.056 43.5166 58.2298 40.8251 54.8447 40.8251V44.8251C56.1114 44.8251 57.056 45.8154 57.056 46.9369H61.056ZM50.6476 60.7022C50.6476 61.8237 49.7029 62.814 48.4363 62.814V66.814C51.8213 66.814 54.6476 64.1225 54.6476 60.7022H50.6476ZM48.4363 58.5905C49.7029 58.5905 50.6476 59.5808 50.6476 60.7022H54.6476C54.6476 57.282 51.8213 54.5905 48.4363 54.5905V58.5905ZM46.225 60.7022C46.225 59.5808 47.1697 58.5905 48.4363 58.5905V54.5905C45.0513 54.5905 42.225 57.282 42.225 60.7022H46.225ZM48.4363 62.814C47.1697 62.814 46.225 61.8237 46.225 60.7022H42.225C42.225 64.1225 45.0513 66.814 48.4363 66.814V62.814Z" fill="black" mask="url(#path-3-inside-2)"/>
</svg>
