<svg width="1200" height="1325" viewBox="0 0 1200 1325" fill="none" xmlns="http://www.w3.org/2000/svg">
<rect width="1200" height="1325" fill="#E5E5E5"/>
<rect width="1200" height="1325" fill="#C4C4C4"/>
<path d="M247.262 186.182C301.84 190.112 348.34 206.007 386.808 246.05C418.456 278.994 443.476 320.559 449.612 366.375C455.492 410.282 452.121 456.975 423.052 492.715C401.265 519.503 367.502 532.637 333.396 525.291C301.382 518.395 271.908 497.952 260.028 466.596C246.35 430.497 259.155 392.374 286.734 366.962C320.625 335.733 374.088 332.045 417.33 338.642C472.96 347.127 520.464 384.868 552.181 430.205C585.756 478.2 613.179 533.84 620.707 592.35C626.46 637.063 627.247 686.141 605.74 727.201C601.953 734.429 593.827 743.951 584.756 743.195C572.243 742.152 566.938 730.577 562.452 720.157C556.038 705.259 550.432 668.533 568.469 658.968C633.218 624.631 676.083 950.335 680.135 974.893C688.867 1027.81 702.88 1081.91 702.88 1135.72" stroke="black" stroke-width="10" stroke-linecap="round" stroke-linejoin="round"/>
<path d="M416.302 863.666C452.182 902.471 490.672 938.638 523.861 979.882C552.478 1015.45 582.946 1048.57 613.81 1082.16C640.645 1111.36 665.282 1142.43 690.7 1172.84C701.684 1185.98 714.549 1199.24 728.338 1209.45C731.532 1211.82 735.763 1216.12 740.151 1214.66C743.425 1213.57 744.735 1210.39 746.094 1207.47C754.172 1190.12 760.578 1171.99 766.343 1153.77C791.488 1074.28 820.089 995.819 849.47 917.812C876.637 845.682 901.928 773.418 935.311 703.87" stroke="black" stroke-width="10" stroke-linecap="round" stroke-linejoin="round"/>
</svg>
