<svg width="280" height="240" viewBox="0 0 280 240" fill="none" xmlns="http://www.w3.org/2000/svg">
<mask id="path-1-inside-1" fill="white">
<path fillRule="evenodd" clipRule="evenodd" d="M183.169 88H97.831C96.8198 88 96 88.8198 96 89.831C96 90.8422 96.8198 91.662 97.831 91.662H183.169C184.18 91.662 185 90.8422 185 89.831C185 88.8198 184.18 88 183.169 88ZM97.831 86C95.7152 86 94 87.7152 94 89.831C94 91.9468 95.7152 93.662 97.831 93.662H183.169C185.285 93.662 187 91.9468 187 89.831C187 87.7152 185.285 86 183.169 86H97.831ZM167.185 118.329H113.815C112.804 118.329 111.984 119.148 111.984 120.16C111.984 121.171 112.804 121.991 113.815 121.991H167.185C168.196 121.991 169.016 121.171 169.016 120.16C169.016 119.148 168.196 118.329 167.185 118.329ZM113.815 116.329C111.7 116.329 109.984 118.044 109.984 120.16C109.984 122.275 111.7 123.991 113.815 123.991H167.185C169.3 123.991 171.016 122.275 171.016 120.16C171.016 118.044 169.3 116.329 167.185 116.329H113.815ZM97.831 148.338H183.169C184.18 148.338 185 149.158 185 150.169C185 151.18 184.18 152 183.169 152H97.831C96.8198 152 96 151.18 96 150.169C96 149.158 96.8198 148.338 97.831 148.338ZM94 150.169C94 148.053 95.7152 146.338 97.831 146.338H183.169C185.285 146.338 187 148.053 187 150.169C187 152.285 185.285 154 183.169 154H97.831C95.7152 154 94 152.285 94 150.169Z"/>
</mask>
<path fillRule="evenodd" clipRule="evenodd" d="M183.169 88H97.831C96.8198 88 96 88.8198 96 89.831C96 90.8422 96.8198 91.662 97.831 91.662H183.169C184.18 91.662 185 90.8422 185 89.831C185 88.8198 184.18 88 183.169 88ZM97.831 86C95.7152 86 94 87.7152 94 89.831C94 91.9468 95.7152 93.662 97.831 93.662H183.169C185.285 93.662 187 91.9468 187 89.831C187 87.7152 185.285 86 183.169 86H97.831ZM167.185 118.329H113.815C112.804 118.329 111.984 119.148 111.984 120.16C111.984 121.171 112.804 121.991 113.815 121.991H167.185C168.196 121.991 169.016 121.171 169.016 120.16C169.016 119.148 168.196 118.329 167.185 118.329ZM113.815 116.329C111.7 116.329 109.984 118.044 109.984 120.16C109.984 122.275 111.7 123.991 113.815 123.991H167.185C169.3 123.991 171.016 122.275 171.016 120.16C171.016 118.044 169.3 116.329 167.185 116.329H113.815ZM97.831 148.338H183.169C184.18 148.338 185 149.158 185 150.169C185 151.18 184.18 152 183.169 152H97.831C96.8198 152 96 151.18 96 150.169C96 149.158 96.8198 148.338 97.831 148.338ZM94 150.169C94 148.053 95.7152 146.338 97.831 146.338H183.169C185.285 146.338 187 148.053 187 150.169C187 152.285 185.285 154 183.169 154H97.831C95.7152 154 94 152.285 94 150.169Z" fill="black"/>
<path d="M97.831 89H183.169V87H97.831V89ZM97 89.831C97 89.372 97.372 89 97.831 89V87C96.2675 87 95 88.2675 95 89.831H97ZM97.831 90.662C97.372 90.662 97 90.2899 97 89.831H95C95 91.3945 96.2675 92.662 97.831 92.662V90.662ZM183.169 90.662H97.831V92.662H183.169V90.662ZM184 89.831C184 90.2899 183.628 90.662 183.169 90.662V92.662C184.733 92.662 186 91.3945 186 89.831H184ZM183.169 89C183.628 89 184 89.372 184 89.831H186C186 88.2675 184.733 87 183.169 87V89ZM95 89.831C95 88.2675 96.2675 87 97.831 87V85C95.1629 85 93 87.1629 93 89.831H95ZM97.831 92.662C96.2675 92.662 95 91.3945 95 89.831H93C93 92.4991 95.1629 94.662 97.831 94.662V92.662ZM183.169 92.662H97.831V94.662H183.169V92.662ZM186 89.831C186 91.3945 184.733 92.662 183.169 92.662V94.662C185.837 94.662 188 92.4991 188 89.831H186ZM183.169 87C184.733 87 186 88.2675 186 89.831H188C188 87.1629 185.837 85 183.169 85V87ZM97.831 87H183.169V85H97.831V87ZM113.815 119.329H167.185V117.329H113.815V119.329ZM112.984 120.16C112.984 119.701 113.356 119.329 113.815 119.329V117.329C112.252 117.329 110.984 118.596 110.984 120.16H112.984ZM113.815 120.991C113.356 120.991 112.984 120.619 112.984 120.16H110.984C110.984 121.723 112.252 122.991 113.815 122.991V120.991ZM167.185 120.991H113.815V122.991H167.185V120.991ZM168.016 120.16C168.016 120.619 167.644 120.991 167.185 120.991V122.991C168.748 122.991 170.016 121.723 170.016 120.16H168.016ZM167.185 119.329C167.644 119.329 168.016 119.701 168.016 120.16H170.016C170.016 118.596 168.748 117.329 167.185 117.329V119.329ZM110.984 120.16C110.984 118.596 112.252 117.329 113.815 117.329V115.329C111.147 115.329 108.984 117.492 108.984 120.16H110.984ZM113.815 122.991C112.252 122.991 110.984 121.723 110.984 120.16H108.984C108.984 122.828 111.147 124.991 113.815 124.991V122.991ZM167.185 122.991H113.815V124.991H167.185V122.991ZM170.016 120.16C170.016 121.723 168.748 122.991 167.185 122.991V124.991C169.853 124.991 172.016 122.828 172.016 120.16H170.016ZM167.185 117.329C168.748 117.329 170.016 118.596 170.016 120.16H172.016C172.016 117.492 169.853 115.329 167.185 115.329V117.329ZM113.815 117.329H167.185V115.329H113.815V117.329ZM183.169 147.338H97.831V149.338H183.169V147.338ZM186 150.169C186 148.605 184.733 147.338 183.169 147.338V149.338C183.628 149.338 184 149.71 184 150.169H186ZM183.169 153C184.733 153 186 151.733 186 150.169H184C184 150.628 183.628 151 183.169 151V153ZM97.831 153H183.169V151H97.831V153ZM95 150.169C95 151.733 96.2675 153 97.831 153V151C97.372 151 97 150.628 97 150.169H95ZM97.831 147.338C96.2675 147.338 95 148.605 95 150.169H97C97 149.71 97.372 149.338 97.831 149.338V147.338ZM97.831 145.338C95.1629 145.338 93 147.501 93 150.169H95C95 148.605 96.2675 147.338 97.831 147.338V145.338ZM183.169 145.338H97.831V147.338H183.169V145.338ZM188 150.169C188 147.501 185.837 145.338 183.169 145.338V147.338C184.733 147.338 186 148.605 186 150.169H188ZM183.169 155C185.837 155 188 152.837 188 150.169H186C186 151.733 184.733 153 183.169 153V155ZM97.831 155H183.169V153H97.831V155ZM93 150.169C93 152.837 95.1629 155 97.831 155V153C96.2675 153 95 151.733 95 150.169H93Z" fill="black" mask="url(#path-1-inside-1)"/>
</svg>
