<svg width="220" height="188" viewBox="0 0 220 188" fill="none" xmlns="http://www.w3.org/2000/svg">
<g filter="url(#filter0_d)">
<mask id="path-1-inside-1" fill="white">
<path fill-rule="evenodd" clip-rule="evenodd" d="M153.169 62H67.831C66.8198 62 66 62.8198 66 63.831C66 64.8422 66.8198 65.662 67.831 65.662H153.169C154.18 65.662 155 64.8422 155 63.831C155 62.8198 154.18 62 153.169 62ZM67.831 60C65.7152 60 64 61.7152 64 63.831C64 65.9468 65.7152 67.662 67.831 67.662H153.169C155.285 67.662 157 65.9468 157 63.831C157 61.7152 155.285 60 153.169 60H67.831ZM137.185 92.3286H83.8154C82.8041 92.3286 81.9844 93.1484 81.9844 94.1596C81.9844 95.1708 82.8041 95.9906 83.8154 95.9906H137.185C138.196 95.9906 139.016 95.1708 139.016 94.1596C139.016 93.1484 138.196 92.3286 137.185 92.3286ZM83.8154 90.3286C81.6996 90.3286 79.9844 92.0438 79.9844 94.1596C79.9844 96.2754 81.6996 97.9906 83.8154 97.9906H137.185C139.3 97.9906 141.016 96.2754 141.016 94.1596C141.016 92.0438 139.3 90.3286 137.185 90.3286H83.8154ZM67.831 122.338H153.169C154.18 122.338 155 123.158 155 124.169C155 125.18 154.18 126 153.169 126H67.831C66.8198 126 66 125.18 66 124.169C66 123.158 66.8198 122.338 67.831 122.338ZM64 124.169C64 122.053 65.7152 120.338 67.831 120.338H153.169C155.285 120.338 157 122.053 157 124.169C157 126.285 155.285 128 153.169 128H67.831C65.7152 128 64 126.285 64 124.169Z"/>
</mask>
<path fill-rule="evenodd" clip-rule="evenodd" d="M153.169 62H67.831C66.8198 62 66 62.8198 66 63.831C66 64.8422 66.8198 65.662 67.831 65.662H153.169C154.18 65.662 155 64.8422 155 63.831C155 62.8198 154.18 62 153.169 62ZM67.831 60C65.7152 60 64 61.7152 64 63.831C64 65.9468 65.7152 67.662 67.831 67.662H153.169C155.285 67.662 157 65.9468 157 63.831C157 61.7152 155.285 60 153.169 60H67.831ZM137.185 92.3286H83.8154C82.8041 92.3286 81.9844 93.1484 81.9844 94.1596C81.9844 95.1708 82.8041 95.9906 83.8154 95.9906H137.185C138.196 95.9906 139.016 95.1708 139.016 94.1596C139.016 93.1484 138.196 92.3286 137.185 92.3286ZM83.8154 90.3286C81.6996 90.3286 79.9844 92.0438 79.9844 94.1596C79.9844 96.2754 81.6996 97.9906 83.8154 97.9906H137.185C139.3 97.9906 141.016 96.2754 141.016 94.1596C141.016 92.0438 139.3 90.3286 137.185 90.3286H83.8154ZM67.831 122.338H153.169C154.18 122.338 155 123.158 155 124.169C155 125.18 154.18 126 153.169 126H67.831C66.8198 126 66 125.18 66 124.169C66 123.158 66.8198 122.338 67.831 122.338ZM64 124.169C64 122.053 65.7152 120.338 67.831 120.338H153.169C155.285 120.338 157 122.053 157 124.169C157 126.285 155.285 128 153.169 128H67.831C65.7152 128 64 126.285 64 124.169Z" fill="black"/>
<path d="M67.831 63H153.169V61H67.831V63ZM67 63.831C67 63.372 67.372 63 67.831 63V61C66.2675 61 65 62.2675 65 63.831H67ZM67.831 64.662C67.372 64.662 67 64.2899 67 63.831H65C65 65.3945 66.2675 66.662 67.831 66.662V64.662ZM153.169 64.662H67.831V66.662H153.169V64.662ZM154 63.831C154 64.2899 153.628 64.662 153.169 64.662V66.662C154.733 66.662 156 65.3945 156 63.831H154ZM153.169 63C153.628 63 154 63.372 154 63.831H156C156 62.2675 154.733 61 153.169 61V63ZM65 63.831C65 62.2675 66.2675 61 67.831 61V59C65.1629 59 63 61.1629 63 63.831H65ZM67.831 66.662C66.2675 66.662 65 65.3945 65 63.831H63C63 66.4991 65.1629 68.662 67.831 68.662V66.662ZM153.169 66.662H67.831V68.662H153.169V66.662ZM156 63.831C156 65.3945 154.733 66.662 153.169 66.662V68.662C155.837 68.662 158 66.4991 158 63.831H156ZM153.169 61C154.733 61 156 62.2675 156 63.831H158C158 61.1629 155.837 59 153.169 59V61ZM67.831 61H153.169V59H67.831V61ZM83.8154 93.3286H137.185V91.3286H83.8154V93.3286ZM82.9844 94.1596C82.9844 93.7007 83.3564 93.3286 83.8154 93.3286V91.3286C82.2518 91.3286 80.9844 92.5961 80.9844 94.1596H82.9844ZM83.8154 94.9906C83.3564 94.9906 82.9844 94.6186 82.9844 94.1596H80.9844C80.9844 95.7231 82.2519 96.9906 83.8154 96.9906V94.9906ZM137.185 94.9906H83.8154V96.9906H137.185V94.9906ZM138.016 94.1596C138.016 94.6186 137.644 94.9906 137.185 94.9906V96.9906C138.748 96.9906 140.016 95.7231 140.016 94.1596H138.016ZM137.185 93.3286C137.644 93.3286 138.016 93.7007 138.016 94.1596H140.016C140.016 92.5961 138.748 91.3286 137.185 91.3286V93.3286ZM80.9844 94.1596C80.9844 92.5961 82.2518 91.3286 83.8154 91.3286V89.3286C81.1473 89.3286 78.9844 91.4915 78.9844 94.1596H80.9844ZM83.8154 96.9906C82.2519 96.9906 80.9844 95.7231 80.9844 94.1596H78.9844C78.9844 96.8277 81.1473 98.9906 83.8154 98.9906V96.9906ZM137.185 96.9906H83.8154V98.9906H137.185V96.9906ZM140.016 94.1596C140.016 95.7231 138.748 96.9906 137.185 96.9906V98.9906C139.853 98.9906 142.016 96.8277 142.016 94.1596H140.016ZM137.185 91.3286C138.748 91.3286 140.016 92.5961 140.016 94.1596H142.016C142.016 91.4915 139.853 89.3286 137.185 89.3286V91.3286ZM83.8154 91.3286H137.185V89.3286H83.8154V91.3286ZM153.169 121.338H67.831V123.338H153.169V121.338ZM156 124.169C156 122.605 154.733 121.338 153.169 121.338V123.338C153.628 123.338 154 123.71 154 124.169H156ZM153.169 127C154.733 127 156 125.733 156 124.169H154C154 124.628 153.628 125 153.169 125V127ZM67.831 127H153.169V125H67.831V127ZM65 124.169C65 125.733 66.2675 127 67.831 127V125C67.372 125 67 124.628 67 124.169H65ZM67.831 121.338C66.2675 121.338 65 122.605 65 124.169H67C67 123.71 67.372 123.338 67.831 123.338V121.338ZM67.831 119.338C65.1629 119.338 63 121.501 63 124.169H65C65 122.605 66.2675 121.338 67.831 121.338V119.338ZM153.169 119.338H67.831V121.338H153.169V119.338ZM158 124.169C158 121.501 155.837 119.338 153.169 119.338V121.338C154.733 121.338 156 122.605 156 124.169H158ZM153.169 129C155.837 129 158 126.837 158 124.169H156C156 125.733 154.733 127 153.169 127V129ZM67.831 129H153.169V127H67.831V129ZM63 124.169C63 126.837 65.1629 129 67.831 129V127C66.2675 127 65 125.733 65 124.169H63Z" fill="black" mask="url(#path-1-inside-1)"/>
</g>
<defs>
<filter id="filter0_d" x="60" y="60" width="101" height="76" filterUnits="userSpaceOnUse" color-interpolation-filters="sRGB">
<feFlood flood-opacity="0" result="BackgroundImageFix"/>
<feColorMatrix in="SourceAlpha" type="matrix" values="0 0 0 0 0 0 0 0 0 0 0 0 0 0 0 0 0 0 127 0"/>
<feOffset dy="4"/>
<feGaussianBlur stdDeviation="2"/>
<feColorMatrix type="matrix" values="0 0 0 0 0 0 0 0 0 0 0 0 0 0 0 0 0 0 0.25 0"/>
<feBlend mode="normal" in2="BackgroundImageFix" result="effect1_dropShadow"/>
<feBlend mode="normal" in="SourceGraphic" in2="effect1_dropShadow" result="shape"/>
</filter>
</defs>
</svg>
