<svg width="934" height="752" viewBox="0 0 934 752" fill="none" xmlns="http://www.w3.org/2000/svg">
<rect width="934" height="752" fill="white"/>
<mask id="path-1-inside-1" fill="white">
<path fillRule="evenodd" clipRule="evenodd" d="M249.322 552.231C239.559 561.994 239.559 577.823 249.322 587.586C259.085 597.349 274.915 597.349 284.678 587.586L466.955 405.309L649.876 588.231C659.639 597.994 675.468 597.994 685.232 588.231C694.995 578.468 694.995 562.639 685.232 552.876L502.31 369.954L673.586 198.678C683.349 188.915 683.349 173.085 673.586 163.322C663.823 153.559 647.994 153.559 638.231 163.322L466.955 334.599L296.323 163.967C286.56 154.204 270.731 154.204 260.967 163.967C251.204 173.73 251.204 189.559 260.967 199.322L431.599 369.954L249.322 552.231Z"/>
</mask>
<path d="M249.322 587.586L248.615 588.294L248.615 588.294L249.322 587.586ZM249.322 552.231L248.615 551.524L248.615 551.524L249.322 552.231ZM284.678 587.586L285.385 588.294L285.385 588.294L284.678 587.586ZM466.955 405.309L467.662 404.602L466.955 403.895L466.247 404.602L466.955 405.309ZM685.232 552.876L685.939 552.169L685.939 552.169L685.232 552.876ZM502.31 369.954L501.603 369.247L500.896 369.954L501.603 370.661L502.31 369.954ZM673.586 198.678L674.294 199.385L674.294 199.385L673.586 198.678ZM673.586 163.322L674.294 162.615L674.294 162.615L673.586 163.322ZM638.231 163.322L638.938 164.029L638.938 164.029L638.231 163.322ZM466.955 334.599L466.247 335.306L466.955 336.013L467.662 335.306L466.955 334.599ZM296.323 163.967L297.03 163.26L296.323 163.967ZM260.967 163.967L260.26 163.26L260.26 163.26L260.967 163.967ZM260.967 199.322L260.26 200.029L260.967 199.322ZM431.599 369.954L432.306 370.661L433.013 369.954L432.306 369.247L431.599 369.954ZM250.029 586.879C240.657 577.507 240.657 562.311 250.029 552.938L248.615 551.524C238.462 561.678 238.462 578.14 248.615 588.294L250.029 586.879ZM283.971 586.879C274.598 596.252 259.402 596.252 250.029 586.879L248.615 588.294C258.769 598.447 275.231 598.447 285.385 588.294L283.971 586.879ZM466.247 404.602L283.971 586.879L285.385 588.294L467.662 406.017L466.247 404.602ZM650.583 587.524L467.662 404.602L466.247 406.017L649.169 588.938L650.583 587.524ZM684.524 587.524C675.152 596.897 659.956 596.897 650.583 587.524L649.169 588.938C659.323 599.092 675.785 599.092 685.939 588.938L684.524 587.524ZM684.524 553.583C693.897 562.955 693.897 578.151 684.524 587.524L685.939 588.938C696.092 578.785 696.092 562.322 685.939 552.169L684.524 553.583ZM501.603 370.661L684.524 553.583L685.939 552.169L503.017 369.247L501.603 370.661ZM672.879 197.971L501.603 369.247L503.017 370.661L674.294 199.385L672.879 197.971ZM672.879 164.029C682.252 173.402 682.252 188.598 672.879 197.971L674.294 199.385C684.447 189.231 684.447 172.769 674.294 162.615L672.879 164.029ZM638.938 164.029C648.311 154.657 663.507 154.657 672.879 164.029L674.294 162.615C664.14 152.462 647.678 152.462 637.524 162.615L638.938 164.029ZM467.662 335.306L638.938 164.029L637.524 162.615L466.247 333.892L467.662 335.306ZM295.616 164.674L466.247 335.306L467.662 333.892L297.03 163.26L295.616 164.674ZM261.675 164.674C271.047 155.302 286.243 155.302 295.616 164.674L297.03 163.26C286.876 153.106 270.414 153.106 260.26 163.26L261.675 164.674ZM261.675 198.615C252.302 189.243 252.302 174.047 261.675 164.674L260.26 163.26C250.107 173.414 250.107 189.876 260.26 200.029L261.675 198.615ZM432.306 369.247L261.675 198.615L260.26 200.029L430.892 370.661L432.306 369.247ZM250.029 552.938L432.306 370.661L430.892 369.247L248.615 551.524L250.029 552.938Z" fill="black" mask="url(#path-1-inside-1)"/>
</svg>
