<svg width="209" height="189" viewBox="0 0 209 189" fill="none" xmlns="http://www.w3.org/2000/svg">
<g filter="url(#filter0_d)">
<mask id="path-1-inside-1" fill="white">
<path fill-rule="evenodd" clip-rule="evenodd" d="M122 111.883C129.665 109.82 134 101.168 134 94.5C134 76.5507 120.569 62 104 62C87.4315 62 74 76.5507 74 94.5C74 112.449 87.4315 127 104 127C106.815 127 107.134 122.066 106.197 118.852C105.068 114.98 106.203 112.159 108.817 110.249C110.459 109.049 112.473 109.843 114.742 110.738C116.956 111.611 119.412 112.58 122 111.883ZM102.732 78.1121C104.879 78.1121 106.62 76.2425 106.62 73.9361C106.62 71.6298 104.879 69.7602 102.732 69.7602C100.586 69.7602 98.8451 71.6298 98.8451 73.9361C98.8451 76.2425 100.586 78.1121 102.732 78.1121ZM120.479 78.1121C120.479 80.4184 118.738 82.2881 116.592 82.2881C114.445 82.2881 112.704 80.4184 112.704 78.1121C112.704 75.8058 114.445 73.9361 116.592 73.9361C118.738 73.9361 120.479 75.8058 120.479 78.1121ZM128.254 91.3663C128.254 93.6726 126.513 95.5423 124.366 95.5423C122.219 95.5423 120.479 93.6726 120.479 91.3663C120.479 89.06 122.219 87.1903 124.366 87.1903C126.513 87.1903 128.254 89.06 128.254 91.3663ZM93.4366 79.2015C93.4366 81.5078 91.6962 83.3775 89.5493 83.3775C87.4024 83.3775 85.662 81.5078 85.662 79.2015C85.662 76.8952 87.4024 75.0255 89.5493 75.0255C91.6962 75.0255 93.4366 76.8952 93.4366 79.2015ZM83.6338 97.3579C85.7807 97.3579 87.5212 95.4883 87.5212 93.1819C87.5212 90.8756 85.7807 89.006 83.6338 89.006C81.4869 89.006 79.7465 90.8756 79.7465 93.1819C79.7465 95.4883 81.4869 97.3579 83.6338 97.3579Z"/>
</mask>
<path d="M122 111.883L121.74 110.917L121.74 110.917L122 111.883ZM106.197 118.852L107.157 118.572L107.157 118.572L106.197 118.852ZM108.817 110.249L108.227 109.442L108.227 109.442L108.817 110.249ZM114.742 110.738L115.108 109.808L115.108 109.808L114.742 110.738ZM133 94.5C133 97.6363 131.975 101.283 130.027 104.387C128.083 107.486 125.27 109.967 121.74 110.917L122.26 112.849C126.395 111.736 129.582 108.859 131.721 105.45C133.858 102.045 135 98.0317 135 94.5H133ZM104 63C119.942 63 133 77.0262 133 94.5H135C135 76.0753 121.195 61 104 61V63ZM75 94.5C75 77.0262 88.0576 63 104 63V61C86.8053 61 73 76.0753 73 94.5H75ZM104 126C88.0576 126 75 111.974 75 94.5H73C73 112.925 86.8053 128 104 128V126ZM105.237 119.132C105.668 120.609 105.804 122.484 105.524 123.942C105.383 124.673 105.154 125.215 104.882 125.553C104.637 125.859 104.364 126 104 126V128C105.043 128 105.866 127.524 106.443 126.804C106.994 126.118 107.314 125.225 107.488 124.32C107.836 122.508 107.664 120.309 107.157 118.572L105.237 119.132ZM108.227 109.442C106.782 110.497 105.699 111.842 105.153 113.503C104.608 115.161 104.629 117.045 105.237 119.132L107.157 118.572C106.637 116.787 106.66 115.325 107.053 114.127C107.446 112.932 108.237 111.911 109.407 111.056L108.227 109.442ZM115.108 109.808C114.003 109.372 112.825 108.902 111.704 108.721C110.541 108.533 109.329 108.636 108.227 109.442L109.407 111.056C109.946 110.662 110.563 110.562 111.385 110.695C112.249 110.835 113.212 111.21 114.375 111.668L115.108 109.808ZM121.74 110.917C119.521 111.515 117.377 110.703 115.108 109.808L114.375 111.668C116.534 112.52 119.302 113.645 122.26 112.849L121.74 110.917ZM105.62 73.9361C105.62 75.7588 104.261 77.1121 102.732 77.1121V79.1121C105.498 79.1121 107.62 76.7261 107.62 73.9361H105.62ZM102.732 70.7602C104.261 70.7602 105.62 72.1134 105.62 73.9361H107.62C107.62 71.1462 105.498 68.7602 102.732 68.7602V70.7602ZM99.8451 73.9361C99.8451 72.1134 101.204 70.7602 102.732 70.7602V68.7602C99.967 68.7602 97.8451 71.1462 97.8451 73.9361H99.8451ZM102.732 77.1121C101.204 77.1121 99.8451 75.7588 99.8451 73.9361H97.8451C97.8451 76.7261 99.967 79.1121 102.732 79.1121V77.1121ZM116.592 83.2881C119.357 83.2881 121.479 80.9021 121.479 78.1121H119.479C119.479 79.9348 118.12 81.2881 116.592 81.2881V83.2881ZM111.704 78.1121C111.704 80.9021 113.826 83.2881 116.592 83.2881V81.2881C115.063 81.2881 113.704 79.9348 113.704 78.1121H111.704ZM116.592 72.9361C113.826 72.9361 111.704 75.3222 111.704 78.1121H113.704C113.704 76.2894 115.063 74.9361 116.592 74.9361V72.9361ZM121.479 78.1121C121.479 75.3222 119.357 72.9361 116.592 72.9361V74.9361C118.12 74.9361 119.479 76.2894 119.479 78.1121H121.479ZM124.366 96.5423C127.132 96.5423 129.254 94.1563 129.254 91.3663H127.254C127.254 93.189 125.895 94.5423 124.366 94.5423V96.5423ZM119.479 91.3663C119.479 94.1562 121.601 96.5423 124.366 96.5423V94.5423C122.838 94.5423 121.479 93.189 121.479 91.3663H119.479ZM124.366 86.1903C121.601 86.1903 119.479 88.5764 119.479 91.3663H121.479C121.479 89.5436 122.838 88.1903 124.366 88.1903V86.1903ZM129.254 91.3663C129.254 88.5764 127.132 86.1903 124.366 86.1903V88.1903C125.895 88.1903 127.254 89.5436 127.254 91.3663H129.254ZM89.5493 84.3775C92.3148 84.3775 94.4366 81.9914 94.4366 79.2015H92.4366C92.4366 81.0242 91.0777 82.3775 89.5493 82.3775V84.3775ZM84.662 79.2015C84.662 81.9914 86.7839 84.3775 89.5493 84.3775V82.3775C88.0209 82.3775 86.662 81.0242 86.662 79.2015H84.662ZM89.5493 74.0255C86.7839 74.0255 84.662 76.4116 84.662 79.2015H86.662C86.662 77.3788 88.0209 76.0255 89.5493 76.0255V74.0255ZM94.4366 79.2015C94.4366 76.4116 92.3148 74.0255 89.5493 74.0255V76.0255C91.0777 76.0255 92.4366 77.3788 92.4366 79.2015H94.4366ZM86.5212 93.1819C86.5212 95.0047 85.1622 96.3579 83.6338 96.3579V98.3579C86.3993 98.3579 88.5212 95.9719 88.5212 93.1819H86.5212ZM83.6338 90.006C85.1622 90.006 86.5212 91.3592 86.5212 93.1819H88.5212C88.5212 90.392 86.3993 88.006 83.6338 88.006V90.006ZM80.7465 93.1819C80.7465 91.3592 82.1055 90.006 83.6338 90.006V88.006C80.8684 88.006 78.7465 90.392 78.7465 93.1819H80.7465ZM83.6338 96.3579C82.1055 96.3579 80.7465 95.0047 80.7465 93.1819H78.7465C78.7465 95.9719 80.8684 98.3579 83.6338 98.3579V96.3579Z" fill="black" mask="url(#path-1-inside-1)"/>
</g>
<defs>
<filter id="filter0_d" x="70" y="62" width="68" height="73" filterUnits="userSpaceOnUse" color-interpolation-filters="sRGB">
<feFlood flood-opacity="0" result="BackgroundImageFix"/>
<feColorMatrix in="SourceAlpha" type="matrix" values="0 0 0 0 0 0 0 0 0 0 0 0 0 0 0 0 0 0 127 0"/>
<feOffset dy="4"/>
<feGaussianBlur stdDeviation="2"/>
<feColorMatrix type="matrix" values="0 0 0 0 0 0 0 0 0 0 0 0 0 0 0 0 0 0 0.25 0"/>
<feBlend mode="normal" in2="BackgroundImageFix" result="effect1_dropShadow"/>
<feBlend mode="normal" in="SourceGraphic" in2="effect1_dropShadow" result="shape"/>
</filter>
</defs>
</svg>
