<svg width="280" height="240" viewBox="0 0 280 240" fill="none" xmlns="http://www.w3.org/2000/svg">
<mask id="path-1-inside-1" fill="white">
<path fillRule="evenodd" clipRule="evenodd" d="M172 149.952C185.414 146.397 193 131.489 193 120C193 89.0721 169.495 64 140.5 64C111.505 64 88 89.0721 88 120C88 150.928 111.505 176 140.5 176C145.426 176 145.985 167.499 144.345 161.96C142.369 155.289 144.355 150.429 148.93 147.137C151.803 145.069 155.328 146.438 159.298 147.979C163.172 149.484 167.471 151.153 172 149.952ZM138.282 91.7624C142.039 91.7624 145.084 88.5409 145.084 84.5669C145.084 80.5929 142.039 77.3713 138.282 77.3713C134.525 77.3713 131.479 80.5929 131.479 84.5669C131.479 88.5409 134.525 91.7624 138.282 91.7624ZM169.338 91.7624C169.338 95.7364 166.292 98.9579 162.535 98.9579C158.778 98.9579 155.732 95.7364 155.732 91.7624C155.732 87.7884 158.778 84.5669 162.535 84.5669C166.292 84.5669 169.338 87.7884 169.338 91.7624ZM182.944 114.6C182.944 118.574 179.898 121.796 176.141 121.796C172.384 121.796 169.338 118.574 169.338 114.6C169.338 110.626 172.384 107.405 176.141 107.405C179.898 107.405 182.944 110.626 182.944 114.6ZM122.014 93.6395C122.014 97.6135 118.968 100.835 115.211 100.835C111.454 100.835 108.408 97.6135 108.408 93.6395C108.408 89.6655 111.454 86.444 115.211 86.444C118.968 86.444 122.014 89.6655 122.014 93.6395ZM104.859 124.924C108.616 124.924 111.662 121.703 111.662 117.729C111.662 113.755 108.616 110.533 104.859 110.533C101.102 110.533 98.0563 113.755 98.0563 117.729C98.0563 121.703 101.102 124.924 104.859 124.924Z"/>
</mask>
<path d="M172 149.952L171.744 148.986L171.744 148.986L172 149.952ZM144.345 161.96L143.386 162.244L143.386 162.244L144.345 161.96ZM148.93 147.137L148.346 146.325L148.346 146.325L148.93 147.137ZM159.298 147.979L159.66 147.047L159.66 147.047L159.298 147.979ZM192 120C192 125.544 190.164 131.958 186.687 137.414C183.213 142.865 178.152 147.287 171.744 148.986L172.256 150.919C179.262 149.062 184.7 144.253 188.374 138.489C192.043 132.73 194 125.946 194 120H192ZM140.5 65C168.883 65 192 89.5626 192 120H194C194 88.5815 170.107 63 140.5 63V65ZM89 120C89 89.5626 112.117 65 140.5 65V63C110.893 63 87 88.5815 87 120H89ZM140.5 175C112.117 175 89 150.437 89 120H87C87 151.418 110.893 177 140.5 177V175ZM143.386 162.244C144.167 164.882 144.419 168.227 143.903 170.865C143.646 172.185 143.212 173.244 142.634 173.954C142.083 174.63 141.398 175 140.5 175V177C142.065 177 143.297 176.307 144.185 175.217C145.046 174.159 145.574 172.747 145.866 171.249C146.452 168.251 146.163 164.577 145.304 161.676L143.386 162.244ZM148.346 146.325C145.921 148.069 144.132 150.269 143.232 152.964C142.333 155.658 142.353 158.756 143.386 162.244L145.304 161.676C144.361 158.493 144.386 155.824 145.129 153.598C145.872 151.372 147.363 149.496 149.514 147.948L148.346 146.325ZM159.66 147.047C157.703 146.288 155.723 145.514 153.86 145.217C151.956 144.914 150.062 145.09 148.346 146.325L149.514 147.948C150.67 147.116 151.976 146.943 153.545 147.192C155.155 147.449 156.923 148.13 158.936 148.912L159.66 147.047ZM171.744 148.986C167.579 150.09 163.588 148.572 159.66 147.047L158.936 148.912C162.757 150.395 167.363 152.216 172.256 150.919L171.744 148.986ZM144.084 84.5669C144.084 88.0422 141.434 90.7624 138.282 90.7624V92.7624C142.643 92.7624 146.084 89.0395 146.084 84.5669H144.084ZM138.282 78.3713C141.434 78.3713 144.084 81.0916 144.084 84.5669H146.084C146.084 80.0942 142.643 76.3713 138.282 76.3713V78.3713ZM132.479 84.5669C132.479 81.0916 135.129 78.3713 138.282 78.3713V76.3713C133.92 76.3713 130.479 80.0942 130.479 84.5669H132.479ZM138.282 90.7624C135.129 90.7624 132.479 88.0422 132.479 84.5669H130.479C130.479 89.0395 133.92 92.7624 138.282 92.7624V90.7624ZM162.535 99.9579C166.897 99.9579 170.338 96.235 170.338 91.7624H168.338C168.338 95.2377 165.688 97.9579 162.535 97.9579V99.9579ZM154.732 91.7624C154.732 96.235 158.174 99.9579 162.535 99.9579V97.9579C159.383 97.9579 156.732 95.2377 156.732 91.7624H154.732ZM162.535 83.5669C158.174 83.5669 154.732 87.2898 154.732 91.7624H156.732C156.732 88.2871 159.383 85.5669 162.535 85.5669V83.5669ZM170.338 91.7624C170.338 87.2898 166.897 83.5669 162.535 83.5669V85.5669C165.688 85.5669 168.338 88.2871 168.338 91.7624H170.338ZM176.141 122.796C180.502 122.796 183.944 119.073 183.944 114.6H181.944C181.944 118.076 179.294 120.796 176.141 120.796V122.796ZM168.338 114.6C168.338 119.073 171.779 122.796 176.141 122.796V120.796C172.988 120.796 170.338 118.076 170.338 114.6H168.338ZM176.141 106.405C171.779 106.405 168.338 110.128 168.338 114.6H170.338C170.338 111.125 172.988 108.405 176.141 108.405V106.405ZM183.944 114.6C183.944 110.128 180.502 106.405 176.141 106.405V108.405C179.294 108.405 181.944 111.125 181.944 114.6H183.944ZM115.211 101.835C119.573 101.835 123.014 98.1121 123.014 93.6395H121.014C121.014 97.1148 118.364 99.835 115.211 99.835V101.835ZM107.408 93.6395C107.408 98.1121 110.85 101.835 115.211 101.835V99.835C112.059 99.835 109.408 97.1148 109.408 93.6395H107.408ZM115.211 85.444C110.85 85.444 107.408 89.1669 107.408 93.6395H109.408C109.408 90.1642 112.059 87.444 115.211 87.444V85.444ZM123.014 93.6395C123.014 89.1669 119.573 85.444 115.211 85.444V87.444C118.364 87.444 121.014 90.1642 121.014 93.6395H123.014ZM110.662 117.729C110.662 121.204 108.012 123.924 104.859 123.924V125.924C109.221 125.924 112.662 122.202 112.662 117.729H110.662ZM104.859 111.533C108.012 111.533 110.662 114.254 110.662 117.729H112.662C112.662 113.256 109.221 109.533 104.859 109.533V111.533ZM99.0563 117.729C99.0563 114.254 101.706 111.533 104.859 111.533V109.533C100.498 109.533 97.0563 113.256 97.0563 117.729H99.0563ZM104.859 123.924C101.706 123.924 99.0563 121.204 99.0563 117.729H97.0563C97.0563 122.202 100.498 125.924 104.859 125.924V123.924Z" fill="black" mask="url(#path-1-inside-1)"/>
</svg>
