<svg width="280" height="240" viewBox="0 0 280 240" fill="none" xmlns="http://www.w3.org/2000/svg">
<mask id="path-1-inside-1" fill="white">
<path fillRule="evenodd" clipRule="evenodd" d="M172 149.952C185.414 146.397 193 131.489 193 120C193 89.0721 169.495 64 140.5 64C111.505 64 88 89.0721 88 120C88 150.928 111.505 176 140.5 176C145.426 176 145.985 167.499 144.345 161.96C142.369 155.289 144.355 150.429 148.93 147.137C151.803 145.069 155.328 146.438 159.298 147.979C163.172 149.484 167.471 151.153 172 149.952ZM138.282 91.7624C142.039 91.7624 145.084 88.5409 145.084 84.5669C145.084 80.5929 142.039 77.3713 138.282 77.3713C134.525 77.3713 131.479 80.5929 131.479 84.5669C131.479 88.5409 134.525 91.7624 138.282 91.7624ZM169.338 91.7624C169.338 95.7364 166.292 98.9579 162.535 98.9579C158.778 98.9579 155.732 95.7364 155.732 91.7624C155.732 87.7884 158.778 84.5669 162.535 84.5669C166.292 84.5669 169.338 87.7884 169.338 91.7624ZM182.944 114.6C182.944 118.574 179.898 121.796 176.141 121.796C172.384 121.796 169.338 118.574 169.338 114.6C169.338 110.626 172.384 107.405 176.141 107.405C179.898 107.405 182.944 110.626 182.944 114.6ZM122.014 93.6395C122.014 97.6135 118.968 100.835 115.211 100.835C111.454 100.835 108.408 97.6135 108.408 93.6395C108.408 89.6655 111.454 86.444 115.211 86.444C118.968 86.444 122.014 89.6655 122.014 93.6395ZM104.859 124.924C108.616 124.924 111.662 121.703 111.662 117.729C111.662 113.755 108.616 110.533 104.859 110.533C101.102 110.533 98.0563 113.755 98.0563 117.729C98.0563 121.703 101.102 124.924 104.859 124.924Z"/>
</mask>
<path d="M172 149.952L171.488 148.019L171.488 148.019L172 149.952ZM144.345 161.96L142.427 162.528L142.427 162.528L144.345 161.96ZM148.93 147.137L147.761 145.513L147.761 145.513L148.93 147.137ZM159.298 147.979L160.022 146.115L160.022 146.115L159.298 147.979ZM191 120C191 125.342 189.224 131.572 185.844 136.877C182.47 142.171 177.596 146.4 171.488 148.019L172.512 151.886C179.818 149.949 185.444 144.947 189.217 139.026C192.983 133.116 195 126.147 195 120H191ZM140.5 66C168.271 66 191 90.0531 191 120H195C195 88.091 170.719 62 140.5 62V66ZM90 120C90 90.0531 112.729 66 140.5 66V62C110.281 62 86 88.091 86 120H90ZM140.5 174C112.729 174 90 149.947 90 120H86C86 151.909 110.281 178 140.5 178V174ZM142.427 162.528C143.169 165.034 143.402 168.216 142.922 170.674C142.682 171.904 142.295 172.787 141.859 173.322C141.476 173.792 141.065 174 140.5 174V178C142.398 178 143.904 177.145 144.96 175.848C145.964 174.616 146.538 173.028 146.848 171.441C147.469 168.263 147.161 164.425 146.263 161.392L142.427 162.528ZM147.761 145.513C145.2 147.356 143.262 149.717 142.284 152.648C141.307 155.576 141.349 158.887 142.427 162.528L146.263 161.392C145.365 158.362 145.413 155.907 146.078 153.914C146.742 151.924 148.084 150.209 150.098 148.76L147.761 145.513ZM160.022 146.115C158.093 145.366 156.007 144.546 154.017 144.23C151.945 143.9 149.759 144.076 147.761 145.513L150.098 148.76C150.974 148.13 151.986 147.957 153.388 148.18C154.872 148.416 156.532 149.051 158.574 149.844L160.022 146.115ZM171.488 148.019C167.686 149.027 164.003 147.661 160.022 146.115L158.574 149.844C162.342 151.307 167.255 153.279 172.512 151.886L171.488 148.019ZM143.084 84.5669C143.084 87.5435 140.83 89.7624 138.282 89.7624V93.7624C143.248 93.7624 147.084 89.5382 147.084 84.5669H143.084ZM138.282 79.3713C140.83 79.3713 143.084 81.5902 143.084 84.5669H147.084C147.084 79.5956 143.248 75.3713 138.282 75.3713V79.3713ZM133.479 84.5669C133.479 81.5902 135.733 79.3713 138.282 79.3713V75.3713C133.316 75.3713 129.479 79.5956 129.479 84.5669H133.479ZM138.282 89.7624C135.733 89.7624 133.479 87.5435 133.479 84.5669H129.479C129.479 89.5382 133.316 93.7624 138.282 93.7624V89.7624ZM162.535 100.958C167.501 100.958 171.338 96.7337 171.338 91.7624H167.338C167.338 94.7391 165.083 96.9579 162.535 96.9579V100.958ZM153.732 91.7624C153.732 96.7337 157.569 100.958 162.535 100.958V96.9579C159.987 96.9579 157.732 94.7391 157.732 91.7624H153.732ZM162.535 82.5669C157.569 82.5669 153.732 86.7911 153.732 91.7624H157.732C157.732 88.7857 159.987 86.5669 162.535 86.5669V82.5669ZM171.338 91.7624C171.338 86.7911 167.501 82.5669 162.535 82.5669V86.5669C165.083 86.5669 167.338 88.7857 167.338 91.7624H171.338ZM176.141 123.796C181.107 123.796 184.944 119.572 184.944 114.6H180.944C180.944 117.577 178.689 119.796 176.141 119.796V123.796ZM167.338 114.6C167.338 119.572 171.175 123.796 176.141 123.796V119.796C173.593 119.796 171.338 117.577 171.338 114.6H167.338ZM176.141 105.405C171.175 105.405 167.338 109.629 167.338 114.6H171.338C171.338 111.624 173.593 109.405 176.141 109.405V105.405ZM184.944 114.6C184.944 109.629 181.107 105.405 176.141 105.405V109.405C178.689 109.405 180.944 111.624 180.944 114.6H184.944ZM115.211 102.835C120.177 102.835 124.014 98.6108 124.014 93.6395H120.014C120.014 96.6162 117.759 98.835 115.211 98.835V102.835ZM106.408 93.6395C106.408 98.6108 110.245 102.835 115.211 102.835V98.835C112.663 98.835 110.408 96.6162 110.408 93.6395H106.408ZM115.211 84.444C110.245 84.444 106.408 88.6682 106.408 93.6395H110.408C110.408 90.6628 112.663 88.444 115.211 88.444V84.444ZM124.014 93.6395C124.014 88.6682 120.177 84.444 115.211 84.444V88.444C117.759 88.444 120.014 90.6628 120.014 93.6395H124.014ZM109.662 117.729C109.662 120.706 107.407 122.924 104.859 122.924V126.924C109.825 126.924 113.662 122.7 113.662 117.729H109.662ZM104.859 112.533C107.407 112.533 109.662 114.752 109.662 117.729H113.662C113.662 112.758 109.825 108.533 104.859 108.533V112.533ZM100.056 117.729C100.056 114.752 102.311 112.533 104.859 112.533V108.533C99.8932 108.533 96.0563 112.758 96.0563 117.729H100.056ZM104.859 122.924C102.311 122.924 100.056 120.706 100.056 117.729H96.0563C96.0563 122.7 99.8932 126.924 104.859 126.924V122.924Z" fill="black" mask="url(#path-1-inside-1)"/>
</svg>
