<svg width="567" height="505" viewBox="0 0 567 505" fill="none" xmlns="http://www.w3.org/2000/svg">
<g filter="url(#filter0_d)">
<mask id="path-1-inside-1" fill="white">
<path fill-rule="evenodd" clip-rule="evenodd" d="M400 362.973C451.101 350.276 480 297.034 480 256C480 145.543 390.457 56 280 56C169.543 56 80 145.543 80 256C80 366.457 169.543 456 280 456C298.766 456 300.896 425.638 294.648 405.858C287.122 382.031 294.684 364.673 312.113 352.917C323.058 345.533 336.487 350.422 351.611 355.927C366.371 361.3 382.745 367.26 400 362.973ZM271.55 155.151C285.862 155.151 297.465 143.646 297.465 129.453C297.465 115.26 285.862 103.755 271.55 103.755C257.237 103.755 245.634 115.26 245.634 129.453C245.634 143.646 257.237 155.151 271.55 155.151ZM389.859 155.151C389.859 169.344 378.257 180.85 363.944 180.85C349.631 180.85 338.028 169.344 338.028 155.151C338.028 140.959 349.631 129.453 363.944 129.453C378.257 129.453 389.859 140.959 389.859 155.151ZM441.691 236.716C441.691 250.908 430.088 262.414 415.775 262.414C401.462 262.414 389.859 250.908 389.859 236.716C389.859 222.523 401.462 211.017 415.775 211.017C430.088 211.017 441.691 222.523 441.691 236.716ZM209.578 161.855C209.578 176.048 197.975 187.554 183.662 187.554C169.349 187.554 157.747 176.048 157.747 161.855C157.747 147.663 169.349 136.157 183.662 136.157C197.975 136.157 209.578 147.663 209.578 161.855ZM144.226 273.587C158.538 273.587 170.141 262.082 170.141 247.889C170.141 233.696 158.538 222.191 144.226 222.191C129.913 222.191 118.31 233.696 118.31 247.889C118.31 262.082 129.913 273.587 144.226 273.587Z"/>
</mask>
<path d="M400 362.973L399.759 362.002L399.759 362.002L400 362.973ZM294.648 405.858L293.694 406.159L293.694 406.159L294.648 405.858ZM312.113 352.917L312.672 353.746L312.672 353.746L312.113 352.917ZM351.611 355.927L351.953 354.987L351.953 354.987L351.611 355.927ZM479 256C479 276.301 471.844 299.676 458.336 319.551C444.833 339.416 425.025 355.724 399.759 362.002L400.241 363.943C426.076 357.524 446.268 340.863 459.99 320.675C473.706 300.495 481 276.733 481 256H479ZM280 57C389.905 57 479 146.095 479 256H481C481 144.991 391.009 55 280 55V57ZM81 256C81 146.095 170.095 57 280 57V55C168.991 55 79 144.991 79 256H81ZM280 455C170.095 455 81 365.905 81 256H79C79 367.009 168.991 457 280 457V455ZM293.694 406.159C296.774 415.911 297.783 428.271 295.725 438.143C294.697 443.077 292.919 447.31 290.329 450.291C287.766 453.242 284.383 455 280 455V457C285 457 288.921 454.962 291.839 451.603C294.731 448.273 296.614 443.679 297.683 438.551C299.82 428.296 298.769 415.586 295.601 405.557L293.694 406.159ZM311.553 352.088C302.705 358.057 296.296 365.493 293.08 374.525C289.864 383.56 289.88 394.084 293.694 406.159L295.601 405.557C291.889 393.804 291.924 383.737 294.964 375.196C298.006 366.654 304.092 359.533 312.672 353.746L311.553 352.088ZM351.953 354.987C344.418 352.244 337.178 349.605 330.443 348.599C323.673 347.589 317.301 348.211 311.553 352.088L312.672 353.746C317.871 350.239 323.685 349.613 330.148 350.577C336.644 351.547 343.681 354.104 351.269 356.866L351.953 354.987ZM399.759 362.002C382.846 366.204 366.761 360.377 351.953 354.987L351.269 356.866C365.981 362.222 382.644 368.315 400.241 363.943L399.759 362.002ZM296.465 129.453C296.465 143.086 285.318 154.151 271.55 154.151V156.151C286.407 156.151 298.465 144.206 298.465 129.453H296.465ZM271.55 104.755C285.318 104.755 296.465 115.821 296.465 129.453H298.465C298.465 114.7 286.407 102.755 271.55 102.755V104.755ZM246.634 129.453C246.634 115.821 257.781 104.755 271.55 104.755V102.755C256.692 102.755 244.634 114.7 244.634 129.453H246.634ZM271.55 154.151C257.781 154.151 246.634 143.086 246.634 129.453H244.634C244.634 144.206 256.692 156.151 271.55 156.151V154.151ZM363.944 181.85C378.801 181.85 390.859 169.904 390.859 155.151H388.859C388.859 168.784 377.712 179.85 363.944 179.85V181.85ZM337.028 155.151C337.028 169.904 349.087 181.85 363.944 181.85V179.85C350.175 179.85 339.028 168.784 339.028 155.151H337.028ZM363.944 128.453C349.087 128.453 337.028 140.398 337.028 155.151H339.028C339.028 141.519 350.175 130.453 363.944 130.453V128.453ZM390.859 155.151C390.859 140.398 378.801 128.453 363.944 128.453V130.453C377.712 130.453 388.859 141.519 388.859 155.151H390.859ZM415.775 263.414C430.632 263.414 442.691 251.469 442.691 236.716H440.691C440.691 250.348 429.543 261.414 415.775 261.414V263.414ZM388.859 236.716C388.859 251.469 400.918 263.414 415.775 263.414V261.414C402.007 261.414 390.859 250.348 390.859 236.716H388.859ZM415.775 210.017C400.918 210.017 388.859 221.963 388.859 236.716H390.859C390.859 223.083 402.007 212.017 415.775 212.017V210.017ZM442.691 236.716C442.691 221.963 430.632 210.017 415.775 210.017V212.017C429.543 212.017 440.691 223.083 440.691 236.716H442.691ZM183.662 188.554C198.519 188.554 210.578 176.608 210.578 161.855H208.578C208.578 175.488 197.431 186.554 183.662 186.554V188.554ZM156.747 161.855C156.747 176.608 168.805 188.554 183.662 188.554V186.554C169.894 186.554 158.747 175.488 158.747 161.855H156.747ZM183.662 135.157C168.805 135.157 156.747 147.102 156.747 161.855H158.747C158.747 148.223 169.894 137.157 183.662 137.157V135.157ZM210.578 161.855C210.578 147.102 198.519 135.157 183.662 135.157V137.157C197.431 137.157 208.578 148.223 208.578 161.855H210.578ZM169.141 247.889C169.141 261.521 157.994 272.587 144.226 272.587V274.587C159.083 274.587 171.141 262.642 171.141 247.889H169.141ZM144.226 223.191C157.994 223.191 169.141 234.256 169.141 247.889H171.141C171.141 233.136 159.083 221.191 144.226 221.191V223.191ZM119.31 247.889C119.31 234.256 130.457 223.191 144.226 223.191V221.191C129.369 221.191 117.31 233.136 117.31 247.889H119.31ZM144.226 272.587C130.457 272.587 119.31 261.521 119.31 247.889H117.31C117.31 262.642 129.369 274.587 144.226 274.587V272.587Z" fill="black" mask="url(#path-1-inside-1)"/>
</g>
<defs>
<filter id="filter0_d" x="76" y="56" width="408" height="408" filterUnits="userSpaceOnUse" color-interpolation-filters="sRGB">
<feFlood flood-opacity="0" result="BackgroundImageFix"/>
<feColorMatrix in="SourceAlpha" type="matrix" values="0 0 0 0 0 0 0 0 0 0 0 0 0 0 0 0 0 0 127 0"/>
<feOffset dy="4"/>
<feGaussianBlur stdDeviation="2"/>
<feColorMatrix type="matrix" values="0 0 0 0 0 0 0 0 0 0 0 0 0 0 0 0 0 0 0.25 0"/>
<feBlend mode="normal" in2="BackgroundImageFix" result="effect1_dropShadow"/>
<feBlend mode="normal" in="SourceGraphic" in2="effect1_dropShadow" result="shape"/>
</filter>
</defs>
</svg>
