<svg width="355" height="359" viewBox="0 0 355 359" fill="none" xmlns="http://www.w3.org/2000/svg">
<mask id="path-1-inside-1" fill="white">
<path fillRule="evenodd" clipRule="evenodd" d="M284 275C329.352 263.636 355 215.985 355 179.259C355 80.4005 275.531 0.25946 177.5 0.25946C79.4695 0.25946 0 80.4005 0 179.259C0 278.118 79.4695 358.259 177.5 358.259C194.155 358.259 196.045 331.086 190.5 313.382C183.821 292.057 190.532 276.522 206 266C215.714 259.392 227.633 263.767 241.055 268.694C254.154 273.503 268.686 278.837 284 275ZM170 89C182.702 89 193 78.7025 193 66C193 53.2974 182.702 43 170 43C157.297 43 147 53.2974 147 66C147 78.7025 157.297 89 170 89ZM275 89C275 101.703 264.702 112 252 112C239.297 112 229 101.703 229 89C229 76.2974 239.297 66 252 66C264.702 66 275 76.2974 275 89ZM321 162C321 174.703 310.703 185 298 185C285.297 185 275 174.703 275 162C275 149.297 285.297 139 298 139C310.703 139 321 149.297 321 162ZM115 95C115 107.703 104.702 118 91.9999 118C79.2974 118 68.9999 107.703 68.9999 95C68.9999 82.2974 79.2974 72 91.9999 72C104.702 72 115 82.2974 115 95ZM57 195C69.7025 195 80 184.703 80 172C80 159.297 69.7025 149 57 149C44.2975 149 34 159.297 34 172C34 184.703 44.2975 195 57 195Z"/>
</mask>
<path d="M284 275L281.569 265.3L281.569 265.3L284 275ZM190.5 313.382L180.957 316.371L180.957 316.371L190.5 313.382ZM206 266L211.625 274.268L211.625 274.268L206 266ZM241.055 268.694L237.609 278.081L237.609 278.081L241.055 268.694ZM345 179.259C345 195.483 339.268 214.652 328.215 231.051C317.215 247.371 301.38 260.336 281.569 265.3L286.431 284.7C311.972 278.3 331.637 261.758 344.799 242.229C357.908 222.781 365 199.761 365 179.259H345ZM177.5 10.2595C269.929 10.2595 345 85.8438 345 179.259H365C365 74.9572 281.133 -9.74054 177.5 -9.74054V10.2595ZM10 179.259C10 85.8438 85.0715 10.2595 177.5 10.2595V-9.74054C73.8674 -9.74054 -10 74.9572 -10 179.259H10ZM177.5 348.259C85.0715 348.259 10 272.675 10 179.259H-10C-10 283.562 73.8674 368.259 177.5 368.259V348.259ZM180.957 316.371C183.298 323.845 184.001 333.329 182.532 340.436C181.8 343.978 180.694 346.127 179.761 347.211C179.09 347.989 178.549 348.259 177.5 348.259V368.259C184.778 368.259 190.719 365.134 194.914 360.263C198.846 355.699 200.989 349.948 202.118 344.484C204.372 333.578 203.247 320.623 200.043 310.393L180.957 316.371ZM200.375 257.732C191.293 263.91 184.151 272.011 180.515 282.311C176.874 292.626 177.116 304.106 180.957 316.371L200.043 310.393C197.205 301.333 197.463 294.383 199.374 288.969C201.291 283.54 205.239 278.612 211.625 274.268L200.375 257.732ZM244.501 259.306C238.057 256.941 230.703 254.198 223.625 253.132C216.198 252.015 207.983 252.556 200.375 257.732L211.625 274.268C213.731 272.835 216.333 272.26 220.649 272.91C225.314 273.612 230.631 275.52 237.609 278.081L244.501 259.306ZM281.569 265.3C269.707 268.272 258.088 264.294 244.501 259.306L237.609 278.081C250.221 282.711 267.665 289.402 286.431 284.7L281.569 265.3ZM183 66C183 73.1797 177.18 79 170 79V99C188.225 99 203 84.2254 203 66H183ZM170 53C177.18 53 183 58.8203 183 66H203C203 47.7746 188.225 33 170 33V53ZM157 66C157 58.8203 162.82 53 170 53V33C151.775 33 137 47.7746 137 66H157ZM170 79C162.82 79 157 73.1797 157 66H137C137 84.2254 151.775 99 170 99V79ZM252 122C270.225 122 285 107.225 285 89H265C265 96.1797 259.18 102 252 102V122ZM219 89C219 107.225 233.775 122 252 122V102C244.82 102 239 96.1797 239 89H219ZM252 56C233.775 56 219 70.7746 219 89H239C239 81.8203 244.82 76 252 76V56ZM285 89C285 70.7746 270.225 56 252 56V76C259.18 76 265 81.8203 265 89H285ZM298 195C316.225 195 331 180.225 331 162H311C311 169.18 305.18 175 298 175V195ZM265 162C265 180.225 279.775 195 298 195V175C290.82 175 285 169.18 285 162H265ZM298 129C279.775 129 265 143.775 265 162H285C285 154.82 290.82 149 298 149V129ZM331 162C331 143.775 316.225 129 298 129V149C305.18 149 311 154.82 311 162H331ZM91.9999 128C110.225 128 125 113.225 125 95H105C105 102.18 99.1796 108 91.9999 108V128ZM58.9999 95C58.9999 113.225 73.7745 128 91.9999 128V108C84.8202 108 78.9999 102.18 78.9999 95H58.9999ZM91.9999 62C73.7745 62 58.9999 76.7746 58.9999 95H78.9999C78.9999 87.8203 84.8202 82 91.9999 82V62ZM125 95C125 76.7746 110.225 62 91.9999 62V82C99.1796 82 105 87.8203 105 95H125ZM70 172C70 179.18 64.1797 185 57 185V205C75.2254 205 90 190.225 90 172H70ZM57 159C64.1797 159 70 164.82 70 172H90C90 153.775 75.2254 139 57 139V159ZM44 172C44 164.82 49.8203 159 57 159V139C38.7746 139 24 153.775 24 172H44ZM57 185C49.8203 185 44 179.18 44 172H24C24 190.225 38.7746 205 57 205V185Z" fill="black" mask="url(#path-1-inside-1)"/>
</svg>
