<svg width="54" height="51" viewBox="0 0 54 51" fill="none" xmlns="http://www.w3.org/2000/svg">
<path fill-rule="evenodd" clip-rule="evenodd" d="M25 4H29V34H29.05C29.0172 34.1616 29 34.3288 29 34.5C29 35.8807 30.1193 37 31.5 37C32.1801 37 32.7968 36.7284 33.2475 36.2878L33.2695 36.3123L45.6145 25.1968L47.9101 27.6586L27.001 45.649L5.58483 26.6125L7.53688 24.2861L20.7543 36.3663L20.7917 36.3253C21.2387 36.7438 21.8394 37 22.5 37C23.7095 37 24.7184 36.1411 24.95 35H25V34.5V4ZM21 2V0H33V1V4V31.1724L45.9161 19.5427L48.5926 22.5153L48.5875 22.5199L50.9447 25.0476L51 25L52.1903 26.3834L52.877 27.1198L52.8475 27.1472L53.6089 28.0321L27.6092 50.4025L27.5708 50.3578L27 51L0 27L0.762796 26.1419L0.760041 26.1395L7.11197 18.5696L10.1761 21.1408L10.1103 21.2192L21 31.1719V4V2Z" fill="white"/>
</svg>
